<svg viewBox="0 0 60 61" fill="none" xmlns="http://www.w3.org/2000/svg"><path d="M35 53h-2v-9.8a1 1 0 1 0-2 0V53H5V33h8.32a1 1 0 1 0 0-2H4a1 1 0 0 0-1 1v21H1a1 1 0 0 0-1 1v2a5 5 0 0 0 5 5h26a5 5 0 0 0 5-5v-2a1 1 0 0 0-1-1Zm-1 3a3 3 0 0 1-3 3h-2v-1a1 1 0 1 0-2 0v1H9v-1a1 1 0 1 0-2 0v1H5a3 3 0 0 1-3-3v-1h32v1ZM52 7h2a1 1 0 1 0 0-2h-2a3 3 0 0 0-3 3v1h-1a1 1 0 1 0 0 2h1v3a1 1 0 1 0 2 0v-3h1a1 1 0 1 0 0-2h-1V8a1 1 0 0 1 1-1Z" fill="#868686"/><path d="M57 1H45a3 3 0 0 0-3 3v2a1 1 0 1 0 2 0V4a1 1 0 0 1 1-1h12a1 1 0 0 1 1 1v12a1 1 0 0 1-1 1H45a1 1 0 0 1-1-1v-6a1 1 0 1 0-2 0v6a3 3 0 0 0 3 3h12a3 3 0 0 0 3-3V4a3 3 0 0 0-3-3ZM47 41a4 4 0 1 0 8 0 4 4 0 0 0-8 0Zm6 0a2 2 0 1 1-4 0 2 2 0 0 1 4 0Z" fill="#868686"/><path d="M57 32H45a3 3 0 0 0-3 3v12a3 3 0 0 0 3 3h12a3 3 0 0 0 3-3v-2a1 1 0 1 0-2 0v2a1 1 0 0 1-1 1H45a1 1 0 0 1-1-1V35a1 1 0 0 1 1-1h12a1 1 0 0 1 1 1v6a1 1 0 1 0 2 0v-6a3 3 0 0 0-3-3ZM22.47 12.85a1 1 0 0 0 .98.04l6-3a1 1 0 0 0 0-1.78l-6-3A1 1 0 0 0 22 6v6a1 1 0 0 0 .47.85ZM24 7.62 26.76 9 24 10.38V7.62Z" fill="#868686"/><path d="M25 18a9 9 0 1 0 0-18 9 9 0 0 0 0 18Zm0-16a7 7 0 1 1 0 14 7 7 0 0 1 0-14ZM35 22a1 1 0 0 0 .8-.4l3-4a1 1 0 0 0-1.6-1.2l-3 4A1 1 0 0 0 35 22ZM37.2 25.6a1 1 0 0 0 1.4.2l4-3a1 1 0 0 0-1.2-1.6l-4 3a1 1 0 0 0-.2 1.4ZM47 27.8a1 1 0 0 0-1.2-.8l-5 1a1.005 1.005 0 1 0 .2 2h.2l5-1a1 1 0 0 0 .8-1.2ZM1 28h12a1 1 0 0 0 1-1V11a1 1 0 0 0-1-1H1a1 1 0 0 0-1 1v16a1 1 0 0 0 1 1Zm1-16h10v14H2V12Z" fill="#868686"/><path d="M9 14H7a1 1 0 1 0 0 2h2a1 1 0 1 0 0-2ZM9 18H5a1 1 0 1 0 0 2h4a1 1 0 1 0 0-2ZM9 22H5a1 1 0 1 0 0 2h4a1 1 0 1 0 0-2ZM34.12 27.7a1.004 1.004 0 0 0-1.74 1l4.41 7.63-16 6H20.64l-2.6 1.5-1.73 1a2 2 0 0 1-2.73-.73l-2-3.46a2 2 0 0 1 .75-2.64l3.46-2 2.5 4.33a1 1 0 0 0 .87.5 1 1 0 0 0 .87-1.5l-2.58-4.46L30 24.52l.41.71a1.003 1.003 0 1 0 1.74-1l-1-1.73a1 1 0 0 0-.69-.48 1 1 0 0 0-.82.21l-14 11.54-4.26 2.46a4 4 0 0 0-1.84 4.53l-1 .57a3 3 0 0 0 1.5 5.6 3.059 3.059 0 0 0 1.5-.4l1-.57a3.879 3.879 0 0 0 2.8 1.18 3.94 3.94 0 0 0 2-.54l.87-.5 2 3.47a3 3 0 0 0 4.09 1.1 3 3 0 0 0 1.1-4.1l-1.82-3.17 15-5.63a1 1 0 0 0 .52-1.43l-4.98-8.64ZM10.5 44.79a1 1 0 0 1-.76.1 1 1 0 0 1-.61-.46 1 1 0 0 1 .37-1.37l.87-.5 1 1.73-.87.5Zm13.16 2.8a1 1 0 0 1 .1.76 1 1 0 0 1-.47.6 1 1 0 0 1-1.36-.36l-2-3.47 1.66-.95h.08l1.99 3.42Z" fill="#868686"/></svg>