<svg viewBox="0 0 95 70" fill="none" xmlns="http://www.w3.org/2000/svg"><circle opacity=".1" cx="60" cy="35" r="35" fill="#2F80ED"/><path d="M10.067 28h13.866c.59 0 1.067-.448 1.067-1s-.477-1-1.067-1H10.067C9.477 26 9 26.448 9 27s.477 1 1.067 1ZM36 31H10a1 1 0 1 0 0 2h26a1 1 0 1 0 0-2ZM36 38H10a1 1 0 1 0 0 2h26a1 1 0 1 0 0-2Z" fill="#868686"/><path d="M54.072 5.071 19.93 5C16.66 5 14 7.705 14 11.03v5.21l-8.07.018c-3.27 0-5.93 2.705-5.93 6.03v21.497c0 3.326 2.66 6.03 5.93 6.03H12v10.168c0 .42.254.797.64.949a.989.989 0 0 0 1.1-.265l9.704-10.855 16.626-.069c3.27 0 5.93-2.705 5.93-6.029V43.6l5.26 5.884a.994.994 0 0 0 1.1.264c.386-.151.64-.528.64-.948v-10.17h1.07c3.27 0 5.93-2.704 5.93-6.028V11.1c0-3.324-2.659-6.029-5.928-6.03ZM44 43.713c0 2.204-1.763 3.995-3.934 3.995l-17.07.072a.993.993 0 0 0-.736.332L14 57.352v-8.555c0-.562-.447-1.017-1-1.017H5.93C3.763 47.78 2 45.987 2 43.784V22.287c0-2.204 1.763-3.996 3.932-3.996L15 18.27h.002l25.068-.053c2.167 0 3.93 1.793 3.93 3.997V43.713ZM58 32.6c0 2.203-1.763 3.995-3.93 3.995H52c-.553 0-1 .456-1 1.017v8.556l-5-5.593V22.216c0-3.326-2.66-6.03-5.932-6.03L16 16.236v-5.207c0-2.204 1.763-3.996 3.928-3.996l34.141.07h.002c2.167 0 3.93 1.794 3.93 3.997V32.6H58Z" fill="#868686"/></svg>