<svg viewBox="0 0 61 61" fill="none" xmlns="http://www.w3.org/2000/svg"><path d="M60.016 29.516h-.984v-6.072c0-2.059-.8-3.993-2.256-5.446a7.652 7.652 0 0 0-5.447-2.256h-1.152v-1.065c2.349-1.363 3.936-3.9 3.936-6.806 0-4.34-3.531-7.871-7.871-7.871S38.37 3.531 38.37 7.871c0 2.905 1.587 5.443 3.935 6.806v1.065h-1.152c-2.057 0-3.991.8-5.446 2.256a7.646 7.646 0 0 0-2.256 5.446v6.072h-1.968v-2.951a.984.984 0 0 0-.984-.984h-2.952v-.338c0-2.869.969-5.587 2.742-7.79.366.162.769.257 1.194.257a2.955 2.955 0 0 0 2.951-2.952 2.955 2.955 0 0 0-2.951-2.951 2.955 2.955 0 0 0-2.952 2.951c0 .48.126.926.33 1.327a14.313 14.313 0 0 0-3.281 9.158v.338h-2.952a.984.984 0 0 0-.984.983v2.952h-.984a.984.984 0 0 0-.984.984v3.935c0 .545.441.984.984.984h.984v5.904a4.925 4.925 0 0 0-4.92 4.919c0 1.461.654 2.76 1.668 3.663a7.91 7.91 0 0 0-3.635 3.358 7.92 7.92 0 0 0-3.635-3.358c1.014-.902 1.667-2.202 1.667-3.663a4.925 4.925 0 0 0-4.919-4.92 4.925 4.925 0 0 0-4.92 4.92c0 1.461.654 2.76 1.668 3.663C1.9 51.145 0 53.885 0 57.065v2.951c0 .544.44.984.984.984h41.322c.544 0 .984-.44.984-.984v-.984h14.758c.544 0 .984-.44.984-.984V35.42h.984c.543 0 .984-.44.984-.983V30.5a.984.984 0 0 0-.984-.984ZM31.484 13.774a.985.985 0 0 1 0 1.968.985.985 0 0 1 0-1.968Zm25.58 9.67v6.072h-1.967v-3.935h-1.968v3.935h-5.903v-7.263l2.512 1.256a.973.973 0 0 0 .816.03.986.986 0 0 0 .557-.598l1.68-5.037a5.698 5.698 0 0 1 2.595 1.486 5.695 5.695 0 0 1 1.678 4.054ZM42.799 17.71l1.95 2.598-1.867.934-1.177-3.532h1.094Zm6.887 0h1.096l-1.177 3.532-1.867-.934 1.948-2.598ZM46.242 1.968c2.893 0 5.301 2.092 5.803 4.842a8.448 8.448 0 0 1-4.937-2.417l-.168-.17a1.011 1.011 0 0 0-1.394 0l-.167.169a8.442 8.442 0 0 1-4.938 2.417c.5-2.749 2.908-4.841 5.8-4.841Zm-5.83 6.835a10.384 10.384 0 0 0 5.83-2.526 10.388 10.388 0 0 0 5.83 2.526 5.912 5.912 0 0 1-5.83 4.971 5.912 5.912 0 0 1-5.83-4.971Zm5.83 6.939c.68 0 1.337-.096 1.968-.259v.915l-1.968 2.623-1.968-2.623v-.915c.63.163 1.287.259 1.968.259Zm-10.823 7.702c0-1.532.597-2.973 1.68-4.055a5.708 5.708 0 0 1 2.595-1.486l1.68 5.037a.986.986 0 0 0 1.372.57l2.512-1.257v7.263h-5.903v-3.935h-1.968v3.935H35.42v-6.072Zm-11.806 4.104h5.903v1.968h-5.903v-1.968Zm-4.92 18.694a2.955 2.955 0 0 1 2.952-2.952 2.955 2.955 0 0 1 2.952 2.952 2.955 2.955 0 0 1-2.952 2.952 2.955 2.955 0 0 1-2.951-2.952Zm-13.774 0a2.955 2.955 0 0 1 2.952-2.952 2.955 2.955 0 0 1 2.952 2.952 2.955 2.955 0 0 1-2.952 2.952 2.955 2.955 0 0 1-2.952-2.952ZM1.968 57.065A5.91 5.91 0 0 1 7.87 51.16a5.91 5.91 0 0 1 5.903 5.904v1.967H1.968v-1.967Zm13.774 0a5.91 5.91 0 0 1 5.903-5.904 5.91 5.91 0 0 1 5.903 5.904v1.967H15.742v-1.967Zm25.58 1.967H29.517v-1.967a5.91 5.91 0 0 1 5.903-5.904 5.91 5.91 0 0 1 5.904 5.904v1.967Zm-8.854-12.79a2.955 2.955 0 0 1 2.951-2.952 2.955 2.955 0 0 1 2.952 2.952 2.955 2.955 0 0 1-2.952 2.952 2.955 2.955 0 0 1-2.951-2.952Zm24.596 10.823H43.29c0-3.18-1.899-5.92-4.619-7.16 1.014-.902 1.668-2.202 1.668-3.663a4.925 4.925 0 0 0-4.92-4.92 4.925 4.925 0 0 0-4.919 4.92c0 1.461.653 2.76 1.668 3.663a7.91 7.91 0 0 0-3.636 3.358 7.921 7.921 0 0 0-3.635-3.358c1.014-.902 1.668-2.202 1.668-3.663a4.922 4.922 0 0 0-2.952-4.502v-6.32h33.451v21.645Zm1.968-23.613H21.645v-1.968h37.387v1.968ZM2.952 19.677h15.742a2.955 2.955 0 0 0 2.951-2.951v-1.56l3.647-3.648a.983.983 0 0 0 0-1.391L21.645 6.48V4.92a2.955 2.955 0 0 0-2.951-2.952H2.951A2.955 2.955 0 0 0 0 4.919v11.807a2.955 2.955 0 0 0 2.952 2.951ZM1.968 4.92c0-.543.442-.983.984-.983h15.742c.542 0 .983.44.983.983v1.968a.98.98 0 0 0 .289.696l3.24 3.24-3.24 3.24a.98.98 0 0 0-.289.695v1.968a.985.985 0 0 1-.983.984H2.951a.985.985 0 0 1-.984-.984V4.919Z" fill="#868686"/><path d="M3.936 5.903H17.71v1.968H3.936V5.903ZM3.936 13.774H17.71v1.968H3.936v-1.968ZM5.903 9.839h9.839v1.968H5.903V9.839Z" fill="#868686"/></svg>