<svg viewBox="0 0 54 54" fill="none" xmlns="http://www.w3.org/2000/svg"><path d="M6.284 6.297v46.777a.9.9 0 0 0 .9.9h34.183a.9.9 0 0 0 .9-.9V15.293c0-.02-.01-.037-.012-.057a.847.847 0 0 0-.046-.23c-.01-.03-.017-.058-.03-.086a.89.89 0 0 0-.18-.263L33.004 5.66a.873.873 0 0 0-.347-.21.891.891 0 0 0-.234-.046c-.015.003-.032-.007-.051-.007H7.184a.9.9 0 0 0-.9.9Zm32.911 8.096h-5.924V8.47l5.924 5.924ZM8.083 7.197h23.389v8.096a.9.9 0 0 0 .9.9h8.095v35.981H8.083V7.197Z" fill="#333"/><path d="M44.066 46.776v1.8h2.698a.9.9 0 0 0 .9-.9V.9a.9.9 0 0 0-.9-.9H12.581a.9.9 0 0 0-.9.9v2.698h1.8v-1.8h32.383v44.978h-1.798Z" fill="#333"/><path d="M13.48 17.99h21.59v1.8H13.48v-1.8ZM13.48 12.594h7.197v1.799h-7.196v-1.8ZM13.48 23.388h14.394v1.8H13.48v-1.8ZM29.673 23.388h5.397v1.8h-5.397v-1.8ZM13.48 28.786h21.59v1.799H13.48v-1.8ZM13.48 39.58h21.59v1.8H13.48v-1.8ZM21.576 34.183H35.07v1.799H21.576v-1.799ZM13.48 34.183h6.298v1.799H13.48v-1.799ZM13.48 44.978h3.6v1.799h-3.6v-1.799ZM18.878 44.978H35.07v1.799H18.878v-1.799Z" fill="#333"/></svg>