<svg viewBox="0 0 94 70" fill="none" xmlns="http://www.w3.org/2000/svg"><circle opacity=".1" cx="59" cy="35" r="35" fill="#2F80ED"/><path d="M54.964 60.942c0 .563-.456 1.02-1.018 1.02H43.768v-3.486a7.164 7.164 0 0 0-5.25-6.885l-5.947-1.62v-1.543a7.138 7.138 0 0 0 3.054-5.832v-1.93c.26-.118.423-.203.455-.215a1.02 1.02 0 0 0 .563-.913v-6.115l5.454-2.1a1.02 1.02 0 0 0 0-1.905l-13.232-5.096a1.026 1.026 0 0 0-.73 0l-13.232 5.096a1.02 1.02 0 0 0-.653.947v4.674l-2.755 2.76 1.439 1.44 1.316-1.317v1.617h2.036v-1.617l1.316 1.318 1.44-1.441-2.756-2.76v-3.19l4.071 1.574v6.115a1.02 1.02 0 0 0 .563.918c.032.015.196.097.455.216v1.924a6.997 6.997 0 0 0 3.054 5.835v1.54l-5.951 1.621a7.163 7.163 0 0 0-5.246 6.884v3.486H3.054a1.019 1.019 0 0 1-1.018-1.02v-39.75h28.5v-2.038h-28.5v-5.096c0-.563.455-1.02 1.018-1.02h27.482V11H3.054A3.056 3.056 0 0 0 0 14.058v46.884A3.056 3.056 0 0 0 3.054 64h50.892A3.056 3.056 0 0 0 57 60.942V23.231h-2.036v37.711Zm-28.5-10.192v-1.325a6.915 6.915 0 0 0 4.072 0v1.325c.003.292.132.568.355.758L28.5 53.502l-2.391-1.994c.223-.189.352-.465.355-.758ZM28.5 26.36l10.396 4.005L28.5 34.37l-10.396-4.005L28.5 26.361Zm-.365 10.054c.235.09.495.09.73 0l5.742-2.212v4.688a17.447 17.447 0 0 1-6.107 1.668c-2.12-.18-4.19-.746-6.107-1.669v-4.688l5.742 2.213Zm-4.724 6.182v-1.094a15.856 15.856 0 0 0 5.089 1.094 15.856 15.856 0 0 0 5.09-1.094v1.094a5.098 5.098 0 0 1-2.552 4.411 5.082 5.082 0 0 1-5.09-.009 4.809 4.809 0 0 1-1.047-.804 5.03 5.03 0 0 1-1.49-3.598Zm-8.143 15.88a5.12 5.12 0 0 1 3.749-4.918l4.8-1.307 4.031 3.363c.378.315.926.315 1.304 0l4.03-3.363 4.798 1.306a5.122 5.122 0 0 1 3.752 4.919v3.486H38.68v-4.077h-2.036v4.077H20.357v-4.077h-2.036v4.077h-3.053v-3.486Z" fill="#868686"/><path d="M6 16h2v2H6v-2ZM11 16h2v2h-2v-2ZM15 16h2v2h-2v-2ZM56 3H36a3 3 0 0 0-3 3v12a3 3 0 0 0 3 3h3v4a1 1 0 0 0 1.78.625L44.48 21H56a3 3 0 0 0 3-3V6a3 3 0 0 0-3-3Zm1 15a1 1 0 0 1-1 1H44a.999.999 0 0 0-.78.375L41 22.149V20a1 1 0 0 0-1-1h-4a1 1 0 0 1-1-1V6a1 1 0 0 1 1-1h20a1 1 0 0 1 1 1v12Z" fill="#868686"/><path d="M39 7h15v2H39V7ZM39 11h15v2H39v-2ZM39 16h15v2H39v-2Z" fill="#868686"/></svg>